<?xml version="1.0" encoding="UTF-8"?>
<svg id="Layer_2" xmlns="http://www.w3.org/2000/svg" viewBox="0 0 256 256">
  <defs>
    <style>
      .cls-1 {
        fill: #fff;
      }

      .cls-2 {
        fill: #e3b448;
      }
    </style>
  </defs>
  <g id="Layer_1-2" data-name="Layer_1">
    <circle class="cls-1" cx="128" cy="128" r="128"/>
    <g>
      <path class="cls-2" d="M79.01,135.42c-.44,1.42-.89,2.85-1.33,4.27-1.84,6.05-3.51,12.15-5.58,18.12-1.13,3.26-2.88,6.32-4.43,9.42-3.21,6.42-6.48,12.81-9.73,19.22-.03.06-.05.12-.08.18-1.13,2.3-.91,2.92,1.44,3.87,1.82.73,3.67,1.4,5.48,2.18,1.84.78,2.68,2.15,2.61,4.01-.04,1.14-.41,1.53-1.57,1.55-2.11.03-4.22.01-6.33.02-5.64,0-11.28,0-16.91,0-1.47,0-1.9-.39-1.86-1.88.08-3.02.89-5.89,1.95-8.69,4.11-10.85,8.31-21.66,12.31-32.55,1.08-2.93,1.62-6.07,2.31-9.14,1.42-6.26,2.78-12.54,4.12-18.81.11-.5.14-1.2-.13-1.56-2.27-3.04-1.78-6.04.12-8.97.57-.88.56-1.47.09-2.38-3.19-6.21-6.29-12.47-9.43-18.71-1.44-2.87-1.52-5.62.72-8.14.65-.73,1.39-1.42,2.18-1.99,7.4-5.28,15.1-10.07,23.51-13.6,2.71-1.14,5.56-1.96,8.34-2.94,2.46-.86,3.42-2.88,2.53-5.33-.71-1.97-1.68-3.87-2.12-5.9-1.12-5.1,1.39-9.87,6.08-12.17,5.28-2.59,11.17-1.35,14.5,3.16.57.78,1.26,1.09,2.27,1.07,3.33-.07,6.66-.04,9.99-.02,2.75.01,5.26.84,7.08,2.92,3.01,3.44,5.87,7.01,8.74,10.57,1.19,1.48,2.33,3.03,3.32,4.65,1.6,2.62,1.1,4.92-1.32,6.84-2.79,2.22-6.09,3.48-9.33,4.82-5.42,2.24-10.87,4.41-16.32,6.6-.99.4-1.71.99-2.15,2.01-2.8,6.5-5.64,12.99-8.48,19.48-1.43,3.28-2.83,6.57-4.36,9.8-.67,1.41-.79,2.76-.56,4.28,1.08,7.17,2.1,14.35,3.13,21.52.54,3.8,1.09,7.6,1.56,11.4.34,2.78-.16,5.49-.81,8.19-1.95,8.02-3.85,16.05-5.77,24.08-.36,1.52.03,2.28,1.49,2.86,2.41.95,4.83,1.88,7.24,2.83,2.15.85,2.89,2,2.87,4.3,0,.84-.33,1.2-1.17,1.2-1.95-.01-3.89,0-5.84,0-5.97,0-11.94,0-17.9,0-1.61,0-2.14-.54-1.94-2.17.36-2.97.76-5.93,1.18-8.88.48-3.34,1.01-6.68,1.53-10.02.69-4.47,1.39-8.95,2.09-13.42.28-1.81.71-3.62.82-5.44.08-1.28-.07-2.64-.41-3.88-1.64-5.97-3.37-11.91-5.08-17.85-.1-.33-.22-.65-.34-.98-.11,0-.22,0-.33,0ZM125.34,67.09c-.19-.38-.24-.53-.33-.66-1.94-2.86-3.85-5.73-5.83-8.56-.9-1.28-2.17-1.97-3.8-1.88-1.68.09-3.36.17-5.03.19-.91.01-.99.38-.68,1.11.44,1.02.84,2.07,1.24,3.1.74,1.89.62,2.1-1.4,2.56-.19.04-.42.06-.56.17-.22.19-.52.43-.55.68-.38,3.3-2.18,5.39-5.29,6.45-.32.11-.58.39-.86.59.05.13.1.26.15.39,7.59-1.37,15.18-2.75,22.93-4.15ZM68.73,106.28c.1-.01.2-.03.29-.04,2.05-5.46,4.09-10.92,6.14-16.38-.06-.08-.12-.16-.18-.24-.37.11-.77.17-1.11.34-2.73,1.35-5.45,2.72-8.18,4.07-.73.36-1,.8-.7,1.64.97,2.74,1.87,5.51,2.81,8.27.27.79.61,1.56.92,2.34Z"/>
      <path class="cls-2" d="M134.97,157.55c-.33,1.74-.62,3.26-.9,4.79-.61,3.39-1.18,6.78-1.84,10.16-.06.32-.56.75-.89.78-1.11.1-2.24.01-3.36.05-.9.03-.87-.68-.98-1.22-.69-3.3-1.36-6.61-2-9.91-.91-4.62-1.77-9.26-2.7-13.88-.17-.83.12-1.1.88-1.09.96,0,1.91.05,2.87,0,.71-.04.94.36,1.04.92.42,2.56.8,5.12,1.22,7.67.44,2.68.9,5.35,1.58,8.03.34-1.83.67-3.66,1.01-5.48.62-3.32,1.26-6.63,1.85-9.95.16-.88.57-1.29,1.46-1.18.16.02.33,0,.49,0,2.78,0,2.33-.3,2.9,2.63.87,4.49,1.72,8.98,2.8,13.47.26-1.64.51-3.29.79-4.93.58-3.46,1.18-6.91,1.74-10.37.1-.63.4-.82.99-.8.92.03,1.85.05,2.77,0,.94-.06,1.17.36,1.01,1.19-.34,1.7-.67,3.4-1.01,5.1-1.24,6.2-2.5,12.39-3.71,18.6-.18.92-.55,1.3-1.5,1.23-.88-.07-1.78-.02-2.67-.02-.58,0-.88-.23-.99-.85-.85-4.84-1.73-9.68-2.6-14.51-.01-.06-.07-.11-.26-.41Z"/>
      <path class="cls-2" d="M173.52,173.72c-2.34,0-4.51-.49-6.2-2.26-1.34-1.41-1.88-3.12-1.81-5.05.02-.62.35-.91.9-.96.52-.05,1.05-.03,1.58-.03.56,0,1.24-.17,1.64.09.35.22.39.93.55,1.44.46,1.47,1.77,2.41,3.36,2.4,1.53,0,2.76-.75,3.14-1.92.47-1.43.04-2.94-1.33-3.8-1.52-.95-3.17-1.7-4.77-2.55-2.16-1.14-3.97-2.58-4.51-5.14-1.1-5.17,2.09-9.04,6.93-9.09,1.31-.02,2.71.2,3.93.67,2.53.97,3.98,3.54,3.87,6.3-.02.54-.25.79-.76.8-.63.02-1.25.04-1.88.05q-1.59.03-1.99-1.48c-.29-1.07-1.33-1.95-2.41-2.04-1.46-.13-2.43.32-2.92,1.34-.51,1.07-.34,2.4.68,3.22,1.06.85,2.27,1.54,3.47,2.21,1.87,1.04,3.86,1.92,5.14,3.73,1.82,2.56,1.96,5.34.64,8.11-1.31,2.73-3.72,3.85-6.66,3.95-.2,0-.4,0-.59,0Z"/>
      <path class="cls-2" d="M157.47,113.27c-1.53,0-2.9.03-4.27-.03-.2,0-.47-.41-.54-.68-.29-1.11-.48-2.24-.78-3.34-.07-.26-.42-.62-.65-.63-1.84-.05-3.68-.03-5.61-.03-.3,1.33-.63,2.59-.85,3.87-.12.69-.48.86-1.07.87-.92,0-1.85,0-2.77.03-.84.04-1-.32-.82-1.09,1-4.4,1.96-8.82,2.94-13.22.77-3.45,1.56-6.89,2.3-10.34.14-.64.44-.87,1.07-.85,1.42.03,2.83.04,4.25,0,.79-.02,1.06.32,1.23,1.05,1.48,6.61,3,13.21,4.51,19.81.33,1.43.66,2.86,1.06,4.59ZM150.88,104.2c-.75-3.61-1.47-7.05-2.19-10.49l-.14.02c-.69,3.48-1.38,6.95-2.08,10.47h4.4Z"/>
      <path class="cls-2" d="M130.45,113.78c-2.61.04-4.97-.57-6.59-2.81-.98-1.35-1.35-2.91-1.22-4.56.02-.27.42-.69.68-.72,1.01-.09,2.04-.04,3.06-.06.62,0,.71.38.78.9.34,2.57,2.52,3.8,4.92,2.82,2.04-.84,2.56-3.52.8-4.91-1.21-.96-2.73-1.55-4.07-2.36-1.32-.79-2.76-1.48-3.84-2.52-2.34-2.25-2.59-5.11-1.51-8.02.98-2.65,3.19-3.77,5.9-4.07,2.51-.28,4.78.19,6.63,2.01,1.32,1.29,1.79,2.94,1.84,4.74.02.56-.23.78-.75.78-.89,0-1.78-.03-2.67,0-.75.04-1.11-.13-1.15-1.01-.04-1.09-.67-1.98-1.75-2.27-1.09-.29-2.22-.33-3.16.54-1.06.99-1.17,2.58-.05,3.58.94.84,2.1,1.44,3.17,2.12,1.68,1.07,3.48,1.97,5.04,3.2,2.26,1.78,2.66,5.54,1.73,7.99-1.07,2.82-3.64,4.57-6.69,4.63-.36,0-.72,0-1.09,0Z"/>
      <path class="cls-2" d="M155.26,162.24v6.55c.34,0,.69,0,1.03,0,1.94,0,3.89.02,5.83,0,.72,0,1.03.29,1.01,1-.02.82,0,1.65,0,2.47,0,.72-.31,1.07-1.09,1.06-3.49-.02-6.99-.02-10.48,0-.75,0-1.07-.29-1.07-1.05,0-8.01.01-16.02,0-24.03,0-.69.32-.99.93-.99,3.66-.02,7.32-.03,10.97.02.25,0,.68.5.7.8.09.95,0,1.91.03,2.86.01.64-.25.86-.89.85-2.01-.03-4.02.01-6.03-.03-.74-.02-1.06.13-1.02.97.07,1.67.02,3.35.02,5.17,1.69,0,3.32,0,4.95,0q1.39,0,1.39,1.35c0,.69-.03,1.39,0,2.08.03.68-.24.93-.93.92-1.77-.04-3.54-.01-5.37-.01Z"/>
      <path class="cls-2" d="M180.71,128.39c-.32,1.76-.63,3.52-.96,5.28-.32,1.74-.63,3.49-1,5.22-.05.24-.45.4-.69.6-.02.02-.06,0-.1,0-2.98.16-2.97.16-3.54-2.78-.96-4.95-1.93-9.9-2.9-14.85-.27-1.38-.13-1.57,1.25-1.58,2.35-.03,2.3-.02,2.64,2.33.44,3.06.98,6.1,1.68,9.17.23-1.29.46-2.58.7-3.87.41-2.22.84-4.44,1.23-6.66.12-.7.45-.96,1.19-.97,2.12,0,2.11-.04,2.52,2.07.59,3.11,1.19,6.23,1.97,9.34.2-1.29.39-2.58.6-3.86.38-2.26.79-4.51,1.14-6.78.09-.59.36-.78.91-.76.85.02,1.7,0,2.8,0-.27,1.53-.5,2.94-.77,4.33-.9,4.69-1.83,9.39-2.73,14.08-.1.54-.32.82-.91.79-.72-.03-1.45-.02-2.17,0-.5.01-.76-.15-.85-.7-.6-3.48-1.24-6.95-1.87-10.43-.05,0-.1.01-.16.02Z"/>
      <path class="cls-2" d="M164.59,106.33c1.27-6.03,2.49-11.79,3.67-17.56.14-.68.42-.96,1.1-.94.92.02,1.85,0,2.77-.02.74-.02,1.01.28.84,1.03-1.07,4.69-2.13,9.39-3.18,14.09-.7,3.1-1.41,6.19-2.05,9.3-.16.75-.48,1.07-1.24,1.05-1.19-.02-2.37,0-3.56.03-.79.02-1.17-.34-1.34-1.11-1.04-4.66-2.12-9.32-3.18-13.98-.7-3.06-1.37-6.13-2.09-9.19-.21-.87,0-1.25.92-1.22.92.03,1.85.04,2.77,0,.59-.03.83.25.94.76,1.13,5.62,2.25,11.23,3.38,16.85.05.23.13.46.27.91Z"/>
      <path class="cls-2" d="M179.98,92.22v6.13c1.32,0,2.62,0,3.92,0q2.44,0,2.42,2.47c0,.1,0,.2,0,.3-.03,1.53-.03,1.52-1.6,1.51-1.54-.01-3.08,0-4.7,0v6.07c.4.03.79.09,1.17.09,1.84,0,3.69,0,5.53-.02.66,0,.97.25.94.94-.03.79-.06,1.59,0,2.37.08,1-.4,1.24-1.29,1.23-2.54-.03-5.07,0-7.61,0-.82,0-1.65,0-2.47,0-.76,0-1.1-.28-1.1-1.12.03-7.74.03-15.48,0-23.22,0-.86.31-1.18,1.15-1.17,3.39.02,6.79.03,10.18,0,.84,0,1.14.29,1.15,1.15.02,3.27.05,3.27-3.17,3.27-1.48,0-2.95,0-4.53,0Z"/>
      <path class="cls-2" d="M152.87,130.84c0-3.09,0-6.17,0-9.26q0-1.28,1.31-1.29,2.23-.02,2.23,2.24c0,5.31-.02,10.61.02,15.92,0,.82-.25.99-1.05,1.08-1.71.21-2.65-.34-3.31-2.01-1.08-2.71-2.45-5.29-3.7-7.93-.08-.16-.18-.3-.43-.42,0,.74,0,1.47,0,2.21,0,2.41-.02,4.81,0,7.22,0,.69-.23.94-.92.91-.85-.05-1.7-.01-2.6-.01-.03-.4-.08-.68-.08-.97,0-5.7.01-11.4-.02-17.1,0-.85.24-1.06,1.1-1.17,1.8-.23,2.68.47,3.36,2.13,1.17,2.88,2.61,5.65,3.93,8.46.05,0,.1,0,.15,0Z"/>
      <path class="cls-2" d="M192.85,162.54c0,3.19-.02,6.39.02,9.58.01.89-.27,1.27-1.18,1.2-.82-.06-1.65-.05-2.47,0-.85.05-1.17-.28-1.16-1.14.02-4.28,0-8.56,0-12.84,0-2.07,0-4.15,0-6.22,0-1.35,0-1.35-1.31-1.35-.96,0-1.91-.01-2.86.02-.62.03-.93-.18-.92-.83.01-.89-.02-1.78,0-2.67.02-.74.35-1.1,1.17-1.09,4.25.03,8.5.03,12.75,0,.72,0,1.05.26,1.05.95,0,.95-.02,1.91-.01,2.86,0,.54-.24.76-.79.75-1.02-.02-2.05.08-3.06-.01-1.05-.09-1.25.34-1.23,1.29.06,3.16.02,6.32.02,9.48h0Z"/>
      <path class="cls-2" d="M111.53,129.57c2.7,2.19,3.25,5.3,1.46,7.85-.99,1.41-2.44,1.98-4.06,2.05-1.87.08-3.76,0-5.63.04-.7.01-.91-.27-.91-.93.01-5.77.01-11.53,0-17.3,0-.72.26-1.01.99-.99,1.78.04,3.56-.01,5.34.05,2.96.1,5.03,2.59,4.71,5.52-.16,1.46-.6,2.75-1.88,3.71ZM105.8,131.19c0,1.06,0,2.01,0,2.95,0,2.21.02,2.22,2.26,1.99,1.43-.15,2.28-1.1,2.25-2.49-.03-1.3-1.05-2.37-2.36-2.45-.65-.04-1.31,0-2.16,0ZM105.8,123.87c0,1.26-.03,2.38.02,3.49.01.23.32.64.49.64.78,0,1.59-.03,2.33-.23.86-.23,1.24-1.13,1.1-2.27-.11-.87-.58-1.5-1.47-1.6-.77-.09-1.56-.02-2.47-.02Z"/>
      <path class="cls-2" d="M128,139.49c-1.23,0-2.31.04-3.38-.03-.24-.02-.53-.43-.64-.72-.7-1.8-1.34-3.62-2.01-5.44-.32-.85-1.12-1.3-1.93-1.01-.19.07-.36.49-.37.76-.03,1.85-.04,3.69,0,5.54.01.67-.17.92-.88.93-2.7.05-2.7.08-2.69-2.58,0-5.18.02-10.35-.02-15.53,0-.88.27-1.16,1.12-1.13,1.75.05,3.49,0,5.24.04,2.86.08,4.9,1.98,5.09,4.84.08,1.13,0,2.3-.24,3.4-.17.76-.6,1.66-1.2,2.08-1.04.74-.89,1.39-.47,2.36.74,1.68,1.35,3.41,1.99,5.13.14.38.23.79.4,1.36ZM119.63,123.87c0,1.61-.02,3.08.02,4.55,0,.2.3.57.45.57.81-.01,1.65,0,2.42-.22,1.07-.3,1.61-1.53,1.46-2.91-.1-.98-.87-1.9-1.76-1.97-.81-.06-1.63-.01-2.6-.01Z"/>
      <path class="cls-2" d="M223.4,139.5c-1.19,0-2.15.05-3.09-.03-.28-.03-.65-.38-.78-.67-.98-2.21-1.91-4.45-2.9-6.79-.76,1.09-1.57,2.04-1.46,3.47.09,1.08,0,2.17.03,3.26.01.55-.2.73-.74.76-2.81.16-2.81.18-2.81-2.64,0-5.11.02-10.21-.02-15.32,0-.92.23-1.28,1.2-1.27,2.37.02,2.37-.02,2.37,2.31,0,1.81,0,3.61.16,5.48.28-.53.56-1.05.83-1.58.92-1.81,1.87-3.61,2.76-5.44.27-.56.64-.77,1.23-.75.88.02,1.76,0,2.88,0-.31.79-.49,1.41-.77,1.97-.93,1.85-1.92,3.66-2.81,5.52-.19.4-.2,1.02-.04,1.43,1.16,2.96,2.39,5.88,3.58,8.83.17.41.23.86.39,1.46Z"/>
      <path class="cls-2" d="M129.91,127.93c0-2.21.03-4.42-.02-6.62-.02-.79.28-1.01,1.03-1.03,2.53-.05,2.53-.07,2.53,2.44,0,3.63-.01,7.25,0,10.88,0,1.96,1.02,2.96,2.73,2.8,1.3-.13,1.99-1.11,2-2.92.02-3.76,0-7.51.01-11.27,0-2.13-.3-1.87,1.89-1.9.3,0,.59.02.89,0,.54-.03.76.2.76.76-.01,4.42.06,8.83-.03,13.25-.05,2.66-1.75,4.85-3.89,5.36-3.17.76-5.85-.13-7.13-2.51-.43-.81-.7-1.79-.74-2.71-.11-2.17-.03-4.35-.03-6.52h-.01Z"/>
      <path class="cls-2" d="M170,125.84c-1,0-1.95.05-2.89-.04-.22-.02-.49-.5-.57-.82-.34-1.35-1.54-2.05-2.86-1.6-1.33.46-1.84,2.14-.8,3.07.81.73,1.86,1.19,2.79,1.79,1.1.7,2.31,1.3,3.27,2.16,1.91,1.72,2.1,3.93,1.28,6.24-.71,2.02-2.66,3.2-5.06,3.25-1.36.03-2.68-.07-3.92-.73-1.81-.96-2.56-2.55-2.7-4.5-.04-.58.18-.93.85-.9.88.04,1.76,0,2.61,0,.39,2.13,1.11,2.83,2.76,2.79.96-.02,1.62-.45,1.98-1.34.36-.89.23-1.75-.49-2.34-.73-.59-1.6-1-2.42-1.48-1.01-.59-2.09-1.1-3.04-1.79-1.8-1.29-2.23-3.2-1.95-5.25.27-1.98,1.44-3.34,3.35-4.01,1.23-.43,2.47-.57,3.77-.27,2.89.68,4.29,2.58,4.02,5.75Z"/>
      <path class="cls-2" d="M197.68,129.91c.1-1.9.06-3.83.34-5.7.43-2.82,3.54-4.76,6.49-4.23,2.89.51,4.9,3.17,4.5,5.99-.03.23-.36.58-.58.6-.72.08-1.45.08-2.17.01-.21-.02-.47-.35-.56-.59-.16-.39-.14-.85-.29-1.24-.28-.71-.76-1.21-1.59-1.29-.86-.07-1.59.16-2.01.94-.24.45-.46.98-.47,1.48-.05,2.73-.09,5.47.02,8.2.03.7.47,1.56,1,2.01,1.28,1.08,3.16.19,3.29-1.53.07-.82.41-1.02,1.11-.98.13,0,.26,0,.4,0,2.5-.07,2.23.18,1.82,2.27-.43,2.18-2.17,4.22-5.7,4.06-2.67-.12-4.93-1.77-5.27-4.28-.26-1.88-.23-3.8-.33-5.71Z"/>
      <path class="cls-2" d="M195.39,129.91c0,2.87-.03,5.73.02,8.6.01.8-.27,1.01-1.03,1.01-2.53,0-2.53.03-2.53-2.54,0-5.17.03-10.34-.02-15.51,0-.93.31-1.18,1.19-1.18,2.37,0,2.37-.04,2.37,2.32,0,2.44,0,4.88,0,7.31Z"/>
    </g>
  </g>
</svg>