<?xml version="1.0" encoding="UTF-8"?>
<svg id="Layer_2" xmlns="http://www.w3.org/2000/svg" viewBox="0 0 81.79 68.98">
  <defs>
    <style>
      .cls-1 {
        fill: #e3b448;
      }
    </style>
  </defs>
  <g id="Layer_1-2" data-name="Layer_1">
    <g>
      <path class="cls-1" d="M17.14,40.86c-.2.64-.4,1.27-.59,1.91-.82,2.71-1.57,5.44-2.5,8.11-.51,1.46-1.29,2.83-1.98,4.22-1.44,2.87-2.9,5.74-4.36,8.6-.01.03-.02.05-.03.08-.51,1.03-.41,1.31.65,1.73.82.33,1.64.63,2.45.97.82.35,1.2.96,1.17,1.79-.02.51-.18.69-.7.69-.94.01-1.89,0-2.83,0-2.52,0-5.05,0-7.57,0-.66,0-.85-.17-.83-.84.04-1.35.4-2.64.87-3.89,1.84-4.86,3.72-9.7,5.51-14.57.48-1.31.73-2.72,1.04-4.09.63-2.8,1.24-5.61,1.85-8.42.05-.22.06-.54-.06-.7-1.02-1.36-.8-2.71.05-4.02.25-.39.25-.66.04-1.07-1.43-2.78-2.82-5.58-4.22-8.38-.65-1.28-.68-2.52.32-3.64.29-.33.62-.64.98-.89,3.31-2.36,6.76-4.51,10.52-6.09,1.21-.51,2.49-.88,3.73-1.32,1.1-.39,1.53-1.29,1.13-2.39-.32-.88-.75-1.73-.95-2.64-.5-2.28.62-4.42,2.72-5.45,2.36-1.16,5-.61,6.49,1.41.26.35.57.49,1.02.48,1.49-.03,2.98-.02,4.47-.01,1.23,0,2.35.38,3.17,1.31,1.35,1.54,2.63,3.14,3.91,4.73.53.66,1.04,1.36,1.49,2.08.72,1.17.49,2.2-.59,3.06-1.25.99-2.73,1.56-4.18,2.16-2.43,1-4.87,1.98-7.31,2.95-.44.18-.76.44-.96.9-1.25,2.91-2.53,5.82-3.8,8.72-.64,1.47-1.27,2.94-1.95,4.39-.3.63-.35,1.24-.25,1.92.48,3.21.94,6.42,1.4,9.64.24,1.7.49,3.4.7,5.11.15,1.24-.07,2.46-.36,3.67-.87,3.59-1.73,7.19-2.58,10.78-.16.68.02,1.02.67,1.28,1.08.42,2.16.84,3.24,1.27.96.38,1.29.89,1.29,1.93,0,.38-.15.54-.52.54-.87,0-1.74,0-2.61,0-2.67,0-5.34,0-8.02,0-.72,0-.96-.24-.87-.97.16-1.33.34-2.65.53-3.98.22-1.5.45-2.99.68-4.48.31-2,.62-4,.94-6.01.13-.81.32-1.62.37-2.44.04-.57-.03-1.18-.19-1.74-.73-2.67-1.51-5.33-2.27-7.99-.04-.15-.1-.29-.15-.44-.05,0-.1,0-.15,0ZM37.89,10.26c-.08-.17-.11-.24-.15-.3-.87-1.28-1.72-2.57-2.61-3.83-.4-.58-.97-.88-1.7-.84-.75.04-1.5.08-2.25.09-.41,0-.44.17-.3.5.2.46.37.92.56,1.39.33.85.28.94-.63,1.15-.09.02-.19.03-.25.08-.1.08-.23.19-.25.3-.17,1.48-.98,2.41-2.37,2.89-.14.05-.26.17-.39.26.02.06.05.11.07.17,3.4-.62,6.79-1.23,10.27-1.86ZM12.54,27.81s.09-.01.13-.02c.92-2.44,1.83-4.89,2.75-7.33-.03-.04-.05-.07-.08-.11-.17.05-.35.08-.5.15-1.22.6-2.44,1.22-3.66,1.82-.33.16-.45.36-.31.74.44,1.23.84,2.47,1.26,3.7.12.35.28.7.41,1.05Z"/>
      <path class="cls-1" d="M42.2,50.76c-.15.78-.28,1.46-.4,2.15-.27,1.52-.53,3.03-.82,4.55-.03.14-.25.34-.4.35-.5.04-1,0-1.5.02-.4.01-.39-.31-.44-.55-.31-1.48-.61-2.96-.9-4.44-.41-2.07-.79-4.14-1.21-6.21-.07-.37.05-.49.4-.49.43,0,.86.02,1.28,0,.32-.02.42.16.46.41.19,1.14.36,2.29.55,3.44.2,1.2.4,2.39.71,3.6.15-.82.3-1.64.45-2.46.28-1.48.56-2.97.83-4.45.07-.39.25-.58.66-.53.07,0,.15,0,.22,0,1.24,0,1.04-.14,1.3,1.18.39,2.01.77,4.02,1.25,6.03.12-.74.23-1.47.35-2.21.26-1.55.53-3.09.78-4.64.05-.28.18-.37.44-.36.41.01.83.02,1.24,0,.42-.03.53.16.45.53-.15.76-.3,1.52-.45,2.29-.56,2.77-1.12,5.55-1.66,8.33-.08.41-.25.58-.67.55-.4-.03-.8,0-1.19,0-.26,0-.39-.11-.44-.38-.38-2.17-.77-4.33-1.16-6.5,0-.03-.03-.05-.11-.18Z"/>
      <path class="cls-1" d="M59.46,58c-1.05,0-2.02-.22-2.77-1.01-.6-.63-.84-1.4-.81-2.26.01-.28.16-.41.4-.43.23-.02.47-.01.71-.01.25,0,.55-.07.74.04.16.1.18.42.25.64.21.66.79,1.08,1.5,1.08.69,0,1.24-.34,1.4-.86.21-.64.02-1.31-.6-1.7-.68-.43-1.42-.76-2.13-1.14-.97-.51-1.78-1.16-2.02-2.3-.49-2.31.93-4.05,3.1-4.07.59,0,1.21.09,1.76.3,1.13.44,1.78,1.59,1.73,2.82,0,.24-.11.35-.34.36-.28,0-.56.02-.84.02q-.71.01-.89-.66c-.13-.48-.59-.87-1.08-.91-.65-.06-1.09.14-1.31.6-.23.48-.15,1.07.31,1.44.48.38,1.02.69,1.55.99.84.47,1.73.86,2.3,1.67.81,1.15.88,2.39.29,3.63-.59,1.22-1.66,1.72-2.98,1.77-.09,0-.18,0-.27,0Z"/>
      <path class="cls-1" d="M52.27,30.94c-.69,0-1.3.01-1.91-.01-.09,0-.21-.18-.24-.3-.13-.5-.21-1-.35-1.5-.03-.12-.19-.28-.29-.28-.82-.02-1.65-.01-2.51-.01-.13.6-.28,1.16-.38,1.73-.05.31-.21.39-.48.39-.41,0-.83,0-1.24.01-.38.02-.45-.14-.37-.49.45-1.97.88-3.95,1.32-5.92.34-1.54.7-3.08,1.03-4.63.06-.28.2-.39.48-.38.63.01,1.27.02,1.9,0,.35-.01.48.14.55.47.66,2.96,1.34,5.91,2.02,8.87.15.64.3,1.28.47,2.06ZM49.32,26.88c-.34-1.62-.66-3.16-.98-4.7h-.06c-.31,1.56-.62,3.12-.93,4.7h1.97Z"/>
      <path class="cls-1" d="M40.18,31.17c-1.17.02-2.22-.26-2.95-1.26-.44-.6-.6-1.3-.54-2.04,0-.12.19-.31.3-.32.45-.04.91-.02,1.37-.02.28,0,.32.17.35.4.15,1.15,1.13,1.7,2.2,1.26.91-.37,1.14-1.57.36-2.2-.54-.43-1.22-.69-1.82-1.06-.59-.35-1.23-.66-1.72-1.13-1.05-1.01-1.16-2.29-.68-3.59.44-1.19,1.43-1.69,2.64-1.82,1.12-.13,2.14.09,2.97.9.59.58.8,1.32.82,2.12,0,.25-.1.35-.34.35-.4,0-.8-.02-1.19,0-.34.02-.5-.06-.51-.45-.02-.49-.3-.89-.78-1.02-.49-.13-1-.15-1.41.24-.47.44-.53,1.16-.02,1.6.42.38.94.64,1.42.95.75.48,1.56.88,2.26,1.43,1.01.8,1.19,2.48.77,3.58-.48,1.26-1.63,2.04-3,2.07-.16,0-.32,0-.49,0Z"/>
      <path class="cls-1" d="M51.28,52.87v2.93c.15,0,.31,0,.46,0,.87,0,1.74,0,2.61,0,.32,0,.46.13.45.45,0,.37,0,.74,0,1.11,0,.32-.14.48-.49.48-1.56,0-3.13,0-4.69,0-.34,0-.48-.13-.48-.47,0-3.59,0-7.17,0-10.76,0-.31.14-.44.42-.44,1.64,0,3.28-.01,4.91,0,.11,0,.3.22.32.36.04.42,0,.85.01,1.28,0,.29-.11.39-.4.38-.9-.01-1.8,0-2.7-.01-.33,0-.47.06-.46.44.03.75,0,1.5,0,2.31.75,0,1.49,0,2.22,0q.62,0,.62.6c0,.31-.01.62,0,.93.01.3-.11.42-.42.41-.79-.02-1.59,0-2.4,0Z"/>
      <path class="cls-1" d="M62.68,37.71c-.14.79-.28,1.58-.43,2.36-.14.78-.28,1.56-.45,2.34-.02.11-.2.18-.31.27,0,0-.03,0-.04,0-1.33.07-1.33.07-1.58-1.24-.43-2.22-.86-4.43-1.3-6.65-.12-.62-.06-.7.56-.71,1.05-.01,1.03,0,1.18,1.04.2,1.37.44,2.73.75,4.1.1-.58.21-1.16.31-1.73.18-.99.37-1.99.55-2.98.06-.31.2-.43.53-.43.95,0,.95-.02,1.13.93.27,1.39.53,2.79.88,4.18.09-.58.17-1.15.27-1.73.17-1.01.35-2.02.51-3.03.04-.26.16-.35.41-.34.38,0,.76,0,1.25,0-.12.69-.22,1.32-.34,1.94-.4,2.1-.82,4.2-1.22,6.3-.05.24-.15.37-.41.35-.32-.01-.65,0-.97,0-.23,0-.34-.07-.38-.32-.27-1.56-.56-3.11-.84-4.67-.02,0-.05,0-.07,0Z"/>
      <path class="cls-1" d="M55.46,27.83c.57-2.7,1.12-5.28,1.64-7.86.06-.3.19-.43.49-.42.41.01.83,0,1.24,0,.33,0,.45.12.37.46-.48,2.1-.95,4.2-1.43,6.31-.31,1.39-.63,2.77-.92,4.17-.07.34-.21.48-.55.47-.53-.01-1.06,0-1.59.01-.35,0-.52-.15-.6-.5-.47-2.09-.95-4.17-1.42-6.26-.31-1.37-.61-2.75-.94-4.11-.09-.39,0-.56.41-.55.41.01.83.02,1.24,0,.26-.01.37.11.42.34.5,2.51,1.01,5.03,1.51,7.54.02.1.06.2.12.41Z"/>
      <path class="cls-1" d="M62.35,21.51v2.75c.59,0,1.17,0,1.76,0q1.09,0,1.08,1.11s0,.09,0,.13c-.01.68-.01.68-.72.67-.69,0-1.38,0-2.1,0v2.72c.18.01.35.04.52.04.83,0,1.65,0,2.48,0,.3,0,.43.11.42.42-.01.35-.03.71,0,1.06.04.45-.18.56-.58.55-1.14-.01-2.27,0-3.41,0-.37,0-.74,0-1.11,0-.34,0-.49-.12-.49-.5.01-3.47.01-6.93,0-10.4,0-.38.14-.53.51-.52,1.52.01,3.04.01,4.56,0,.38,0,.51.13.51.52,0,1.46.02,1.46-1.42,1.46-.66,0-1.32,0-2.03,0Z"/>
      <path class="cls-1" d="M50.21,38.8c0-1.38,0-2.76,0-4.14q0-.57.59-.58,1-.01,1,1c0,2.38,0,4.75,0,7.13,0,.37-.11.44-.47.49-.76.09-1.19-.15-1.48-.9-.48-1.21-1.1-2.37-1.66-3.55-.03-.07-.08-.14-.19-.19,0,.33,0,.66,0,.99,0,1.08,0,2.15,0,3.23,0,.31-.1.42-.41.41-.38-.02-.76,0-1.16,0-.01-.18-.03-.31-.03-.43,0-2.55,0-5.1,0-7.66,0-.38.11-.48.49-.53.8-.1,1.2.21,1.5.95.52,1.29,1.17,2.53,1.76,3.79.02,0,.05,0,.07,0Z"/>
      <path class="cls-1" d="M68.11,53c0,1.43-.01,2.86,0,4.29,0,.4-.12.57-.53.54-.37-.03-.74-.02-1.11,0-.38.02-.52-.13-.52-.51.01-1.92,0-3.83,0-5.75,0-.93,0-1.86,0-2.79,0-.61,0-.61-.59-.6-.43,0-.86,0-1.28.01-.28.01-.42-.08-.41-.37,0-.4,0-.8,0-1.19,0-.33.16-.49.52-.49,1.9.01,3.8.01,5.71,0,.32,0,.47.12.47.42,0,.43,0,.86,0,1.28,0,.24-.11.34-.35.33-.46,0-.92.04-1.37,0-.47-.04-.56.15-.55.58.02,1.42,0,2.83,0,4.25h0Z"/>
      <path class="cls-1" d="M31.71,38.24c1.21.98,1.46,2.37.65,3.52-.44.63-1.09.89-1.82.92-.84.04-1.68,0-2.52.02-.32,0-.41-.12-.41-.42,0-2.58,0-5.16,0-7.75,0-.32.12-.45.44-.44.8.02,1.59,0,2.39.02,1.32.04,2.25,1.16,2.11,2.47-.07.66-.27,1.23-.84,1.66ZM29.14,38.96c0,.48,0,.9,0,1.32,0,.99.01,1,1.01.89.64-.07,1.02-.49,1.01-1.11-.01-.58-.47-1.06-1.05-1.1-.29-.02-.59,0-.97,0ZM29.14,35.69c0,.56-.01,1.06.01,1.56,0,.1.14.29.22.29.35,0,.71-.01,1.05-.1.39-.1.56-.51.49-1.02-.05-.39-.26-.67-.66-.72-.35-.04-.7,0-1.11,0Z"/>
      <path class="cls-1" d="M39.08,42.68c-.55,0-1.03.02-1.51-.02-.11,0-.24-.19-.29-.32-.31-.81-.6-1.62-.9-2.43-.14-.38-.5-.58-.87-.45-.09.03-.16.22-.16.34-.01.83-.02,1.65,0,2.48,0,.3-.08.41-.4.42-1.21.02-1.21.03-1.21-1.16,0-2.32,0-4.63,0-6.95,0-.39.12-.52.5-.51.78.02,1.56,0,2.35.02,1.28.03,2.19.89,2.28,2.17.03.5,0,1.03-.11,1.52-.08.34-.27.74-.54.93-.47.33-.4.62-.21,1.06.33.75.6,1.53.89,2.3.06.17.1.35.18.61ZM35.33,35.69c0,.72,0,1.38,0,2.04,0,.09.13.25.2.25.36,0,.74,0,1.08-.1.48-.14.72-.68.65-1.3-.05-.44-.39-.85-.79-.88-.36-.03-.73,0-1.16,0Z"/>
      <path class="cls-1" d="M81.79,42.68c-.53,0-.96.02-1.39-.01-.13-.01-.29-.17-.35-.3-.44-.99-.86-1.99-1.3-3.04-.34.49-.7.91-.65,1.55.04.48,0,.97.01,1.46,0,.25-.09.33-.33.34-1.26.07-1.26.08-1.26-1.18,0-2.29,0-4.57,0-6.86,0-.41.1-.57.54-.57,1.06,0,1.06,0,1.06,1.03,0,.81,0,1.62.07,2.45.12-.24.25-.47.37-.71.41-.81.84-1.62,1.23-2.43.12-.25.28-.34.55-.34.39.01.79,0,1.29,0-.14.36-.22.63-.34.88-.41.83-.86,1.64-1.26,2.47-.09.18-.09.46-.02.64.52,1.32,1.07,2.63,1.6,3.95.07.18.1.38.17.65Z"/>
      <path class="cls-1" d="M39.94,37.5c0-.99.01-1.98,0-2.97,0-.36.12-.45.46-.46,1.13-.02,1.13-.03,1.13,1.09,0,1.62,0,3.25,0,4.87,0,.88.46,1.33,1.22,1.25.58-.06.89-.5.9-1.31,0-1.68,0-3.36,0-5.05,0-.95-.14-.84.85-.85.13,0,.27,0,.4,0,.24-.01.34.09.34.34,0,1.98.02,3.95-.01,5.93-.02,1.19-.78,2.17-1.74,2.4-1.42.34-2.62-.06-3.19-1.12-.19-.36-.31-.8-.33-1.21-.05-.97-.02-1.95-.02-2.92h0Z"/>
      <path class="cls-1" d="M57.88,36.57c-.45,0-.87.02-1.29-.02-.1,0-.22-.23-.25-.37-.15-.6-.69-.92-1.28-.72-.6.2-.82.96-.36,1.37.36.33.83.53,1.25.8.49.31,1.03.58,1.46.97.86.77.94,1.76.57,2.79-.32.9-1.19,1.43-2.27,1.45-.61.01-1.2-.03-1.75-.33-.81-.43-1.15-1.14-1.21-2.01-.02-.26.08-.42.38-.4.39.02.79,0,1.17,0,.17.95.5,1.27,1.23,1.25.43,0,.73-.2.89-.6.16-.4.1-.78-.22-1.05-.33-.26-.72-.45-1.08-.66-.45-.27-.93-.49-1.36-.8-.81-.58-1-1.43-.87-2.35.12-.89.65-1.5,1.5-1.8.55-.19,1.11-.26,1.69-.12,1.29.31,1.92,1.16,1.8,2.57Z"/>
      <path class="cls-1" d="M70.28,38.39c.05-.85.03-1.71.15-2.55.19-1.26,1.59-2.13,2.9-1.9,1.29.23,2.19,1.42,2.01,2.68-.01.1-.16.26-.26.27-.32.04-.65.04-.97,0-.09,0-.21-.16-.25-.26-.07-.17-.06-.38-.13-.55-.12-.32-.34-.54-.71-.58-.39-.03-.71.07-.9.42-.11.2-.21.44-.21.66-.02,1.22-.04,2.45.01,3.67.01.31.21.7.45.9.57.49,1.41.09,1.47-.69.03-.37.18-.46.5-.44.06,0,.12,0,.18,0,1.12-.03,1,.08.81,1.02-.19.97-.97,1.89-2.55,1.82-1.2-.05-2.21-.79-2.36-1.92-.12-.84-.1-1.7-.15-2.56Z"/>
      <path class="cls-1" d="M69.25,38.39c0,1.28-.01,2.57,0,3.85,0,.36-.12.45-.46.45-1.13,0-1.13.01-1.13-1.14,0-2.32.01-4.63,0-6.95,0-.42.14-.53.53-.53,1.06,0,1.06-.02,1.06,1.04,0,1.09,0,2.18,0,3.27Z"/>
    </g>
  </g>
</svg>